<?xml version="1.0" standalone="no"?>
<!DOCTYPE svg PUBLIC "-//W3C//DTD SVG 20010904//EN"
 "http://www.w3.org/TR/2001/REC-SVG-20010904/DTD/svg10.dtd">
<svg version="1.0" xmlns="http://www.w3.org/2000/svg"
 width="500.000000pt" height="500.000000pt" viewBox="0 0 500.000000 500.000000"
 preserveAspectRatio="xMidYMid meet">

<g transform="translate(0.000000,500.000000) scale(0.100000,-0.100000)"
fill="#000000" stroke="none">
<path d="M2327 4203 c-48 -38 -119 -93 -158 -123 -39 -30 -90 -68 -113 -84
-22 -16 -70 -53 -106 -81 -36 -29 -86 -67 -112 -86 -26 -19 -117 -88 -203
-154 -86 -66 -177 -135 -203 -154 -26 -19 -76 -57 -112 -86 -36 -28 -84 -65
-106 -81 -23 -16 -115 -85 -204 -154 -89 -69 -178 -136 -198 -150 l-37 -24 45
-7 c104 -17 108 -15 225 76 61 47 126 96 146 109 19 13 74 55 122 92 48 38
132 103 187 144 55 41 127 95 159 120 32 25 78 60 102 78 24 18 92 70 151 115
99 76 258 197 360 274 23 17 45 30 49 28 3 -3 9 -93 13 -202 4 -109 9 -228 12
-264 6 -59 4 -68 -12 -73 -11 -3 -32 -19 -49 -34 -62 -57 -316 -243 -325 -237
-6 3 -10 11 -10 17 0 9 -48 76 -77 106 -7 7 -27 33 -44 57 -18 25 -36 45 -40
45 -4 0 -71 -48 -148 -107 -273 -208 -300 -228 -363 -275 -35 -26 -87 -66
-117 -89 -60 -48 -60 -48 40 -63 44 -6 49 -5 100 36 29 24 81 63 115 88 34 25
105 79 159 120 162 125 184 140 198 140 7 0 20 -15 30 -32 10 -18 31 -48 47
-67 17 -18 30 -37 30 -41 0 -9 -97 -88 -174 -143 -38 -27 -164 -123 -331 -251
-50 -38 -57 -49 -42 -57 30 -17 442 -151 462 -151 20 0 119 66 163 109 8 7 35
27 60 45 26 17 62 44 80 60 18 15 36 28 40 28 8 0 77 -86 136 -170 21 -30 49
-65 61 -78 13 -13 40 -49 62 -80 21 -31 40 -59 43 -62 3 -3 16 -18 29 -35 l24
-30 -5 97 c-5 87 -8 100 -32 130 -15 18 -46 58 -69 89 -23 31 -60 79 -82 107
-22 28 -62 81 -90 117 -27 36 -53 65 -56 65 -3 0 -26 -17 -50 -38 -24 -21 -51
-41 -59 -44 -8 -3 -53 -37 -100 -75 -47 -37 -104 -81 -128 -96 l-42 -27 -120
37 c-66 20 -120 40 -120 43 0 7 105 92 160 130 19 13 57 42 84 64 27 23 77 61
112 86 35 25 100 74 144 108 46 37 87 61 95 58 8 -3 65 -73 126 -156 62 -82
115 -150 118 -150 3 0 4 40 1 88 -5 93 -12 109 -71 177 -17 19 -44 54 -60 77
l-28 43 22 20 c12 12 48 38 80 59 32 21 76 55 97 76 37 36 38 38 35 96 -3 32
-9 160 -16 284 -6 124 -14 273 -17 333 l-7 107 -88 -67z"/>
<path d="M2703 4174 c3 -11 8 -39 12 -64 10 -73 13 -77 83 -123 37 -25 82 -58
100 -74 19 -15 63 -48 98 -73 89 -63 409 -302 507 -379 45 -35 93 -71 107 -80
14 -9 106 -77 204 -151 98 -74 206 -154 240 -177 33 -23 61 -47 61 -54 0 -11
-127 -59 -275 -104 -41 -12 -102 -32 -135 -44 -32 -11 -68 -21 -78 -21 -21 0
-71 33 -202 135 -49 39 -109 83 -133 99 -24 16 -45 33 -48 38 -3 4 16 36 43
69 26 34 65 87 87 117 l38 55 -28 23 c-25 21 -131 100 -418 314 -41 30 -100
76 -133 101 -32 25 -68 51 -80 58 -22 11 -23 10 -23 -26 0 -77 16 -105 88
-155 70 -49 145 -105 247 -184 33 -26 90 -68 127 -93 37 -25 67 -51 68 -56 0
-6 -23 -43 -51 -82 l-52 -72 -39 23 c-21 13 -50 33 -64 45 -14 12 -65 51 -112
87 -101 74 -221 165 -307 230 l-60 45 -6 -83 c-4 -46 -8 -164 -10 -262 l-4
-180 95 -73 c52 -40 125 -93 162 -118 37 -26 70 -50 73 -55 3 -5 -23 -44 -58
-87 -35 -43 -74 -94 -88 -114 -13 -20 -61 -85 -106 -144 -45 -60 -81 -111 -79
-113 6 -6 157 50 170 63 6 7 48 61 91 120 44 59 110 146 148 193 37 48 67 93
67 100 0 7 -14 21 -32 30 -17 9 -65 44 -107 78 -42 33 -92 71 -112 85 -20 13
-54 38 -77 54 l-41 30 -1 127 c0 74 4 129 10 133 5 3 98 -60 206 -142 108 -81
222 -166 254 -188 31 -22 77 -57 101 -77 l44 -37 -26 -28 c-14 -15 -42 -53
-62 -83 -20 -30 -50 -71 -67 -90 -51 -59 -95 -124 -79 -118 8 3 44 15 81 27
72 24 110 58 191 174 23 31 44 57 47 57 3 0 47 -31 98 -70 157 -118 122 -113
334 -41 101 34 265 89 366 123 100 33 182 64 182 68 0 9 -24 28 -200 159 -58
43 -195 145 -304 227 -110 82 -228 169 -262 194 -65 47 -125 92 -284 213 -52
40 -128 96 -169 126 -42 30 -82 60 -90 68 -7 8 -26 22 -40 31 -23 15 -209 153
-251 186 -34 27 -42 29 -37 10z"/>
<path d="M650 2828 c0 -15 105 -322 169 -493 22 -60 41 -116 41 -122 0 -7 16
-57 36 -110 65 -175 112 -307 137 -383 14 -41 71 -205 127 -365 56 -159 113
-324 127 -365 14 -41 29 -79 33 -83 4 -5 20 22 36 59 l28 67 -73 211 c-40 116
-109 315 -153 441 -44 127 -110 318 -148 425 -37 107 -85 245 -107 305 -53
145 -91 265 -84 265 3 0 83 -20 176 -46 94 -25 206 -56 250 -68 l80 -21 77
-215 c43 -118 78 -220 78 -225 0 -6 -55 -31 -122 -55 -68 -24 -130 -47 -139
-51 -15 -8 -12 -20 23 -116 22 -60 70 -198 108 -308 38 -110 84 -244 103 -298
l35 -98 31 66 c17 36 31 69 31 75 0 5 -15 51 -33 102 -19 51 -41 116 -50 143
-8 28 -40 119 -71 203 -31 85 -54 157 -51 162 8 13 168 61 175 53 6 -8 47
-122 175 -493 31 -91 60 -169 65 -173 4 -5 27 20 50 55 23 35 57 81 75 103 17
22 48 65 69 95 20 30 55 78 77 105 25 32 38 57 35 70 -2 11 -29 88 -59 171
-31 83 -58 167 -62 185 l-6 34 78 26 c221 74 443 153 443 159 0 3 -37 16 -82
28 l-83 21 -110 -40 c-60 -22 -130 -46 -155 -53 -109 -33 -225 -76 -228 -85
-3 -10 19 -77 107 -316 23 -60 41 -116 41 -123 0 -13 -150 -216 -155 -210 -16
16 -249 698 -241 705 5 5 193 72 311 111 75 24 75 24 -10 47 -89 24 -130 20
-235 -19 -52 -20 -100 -36 -106 -36 -6 0 -17 21 -24 48 -7 26 -29 88 -48 139
l-34 92 -57 16 c-31 9 -92 27 -136 40 -44 13 -120 33 -170 45 -86 20 -342 91
-377 105 -12 5 -18 2 -18 -7z"/>
<path d="M4268 2697 c-55 -31 -58 -35 -87 -112 -16 -44 -41 -116 -55 -160 -14
-44 -80 -240 -146 -435 -67 -195 -141 -413 -164 -485 -24 -71 -62 -184 -86
-250 -24 -66 -51 -147 -59 -180 -9 -33 -22 -60 -28 -60 -6 0 -56 62 -112 138
-56 76 -121 162 -145 192 -24 29 -47 62 -50 73 -9 26 13 107 81 300 51 144 60
163 78 159 11 -3 73 -24 139 -47 65 -23 122 -38 126 -33 4 4 22 55 40 113 18
58 66 202 107 320 40 118 83 244 95 280 12 36 23 70 26 77 6 19 -82 -14 -111
-41 -18 -17 -41 -73 -82 -202 -32 -98 -70 -213 -86 -254 -15 -41 -35 -96 -44
-122 l-16 -47 -32 13 c-18 8 -56 19 -85 26 -30 7 -56 18 -58 24 -2 6 19 77 47
156 77 219 178 524 174 529 -2 2 -75 -17 -162 -42 -87 -25 -198 -56 -247 -69
l-88 -24 -65 -195 c-36 -107 -68 -198 -73 -202 -4 -5 -59 10 -121 33 -63 23
-163 57 -224 77 -60 19 -127 41 -149 49 -21 8 -40 13 -42 12 -1 -2 21 -35 51
-74 53 -71 54 -71 142 -99 48 -15 157 -52 242 -82 85 -29 159 -52 164 -50 4 1
40 97 79 212 38 116 75 215 81 222 17 17 247 82 247 69 0 -13 -43 -143 -136
-411 -40 -115 -78 -229 -84 -252 -6 -24 -15 -43 -19 -43 -5 0 -91 29 -192 65
-100 36 -184 63 -186 62 -1 -2 21 -34 50 -72 l52 -68 117 -41 c64 -23 119 -44
123 -47 3 -3 -15 -64 -40 -134 -25 -71 -45 -135 -45 -144 0 -20 2 -22 225
-316 69 -90 164 -218 221 -296 l22 -29 10 28 c26 66 89 249 133 382 54 167
346 1026 409 1205 23 66 48 141 55 166 7 25 22 71 34 103 11 31 21 59 21 61 0
9 -16 3 -72 -28z"/>
<path d="M2458 2218 l-43 -63 -3 -272 -3 -273 235 0 235 0 36 -52 c20 -29 54
-77 75 -107 22 -29 38 -57 35 -61 -2 -4 -169 -7 -369 -8 -298 0 -367 2 -376
14 -8 9 -11 71 -8 204 1 104 0 190 -4 190 -5 0 -8 -4 -8 -10 0 -5 -20 -38 -45
-73 l-44 -64 -3 -129 -3 -129 -150 -3 -150 -3 -33 -47 c-18 -26 -67 -97 -110
-159 -42 -61 -111 -160 -152 -219 -41 -60 -92 -135 -112 -166 l-38 -58 1032 0
1032 0 -54 55 -54 55 -873 0 c-480 0 -873 4 -873 8 0 9 57 92 122 178 21 28
38 54 38 57 0 3 14 26 30 49 17 24 47 67 67 96 l36 52 238 0 238 0 3 -147 3
-148 423 -3 c263 -1 422 1 422 7 0 6 -21 30 -47 55 l-48 46 -322 0 -323 0 0
95 0 95 355 0 c241 0 355 3 355 10 0 14 -59 107 -126 197 -30 40 -54 76 -54
79 0 3 -23 37 -51 75 l-52 69 -208 0 -209 0 -1 63 c-1 34 0 162 1 285 1 142
-2 222 -8 222 -6 0 -30 -28 -54 -62z"/>
</g>
</svg>
